#N canvas 522 225 596 546 10;
#X obj 88 62 inlet~;
#X obj 144 63 inlet~;
#X obj 92 122 *~ 1;
#X obj 141 122 *~ 1;
#X obj 258 61 inlet;
#X obj 209 61 inlet;
#X obj 94 286 dac~ 1 2;
#X obj 136 167 expr (1-$f1);
#X obj 101 221 *~ 1;
#X obj 150 221 *~ 1;
#X connect 0 0 2 0;
#X connect 1 0 3 0;
#X connect 2 0 8 0;
#X connect 3 0 9 0;
#X connect 4 0 7 0;
#X connect 4 0 9 1;
#X connect 5 0 2 1;
#X connect 5 0 3 1;
#X connect 7 0 8 1;
#X connect 8 0 6 0;
#X connect 9 0 6 1;
