#N canvas 321 413 769 584 10;
#X obj 217 542 audioOut~;
#X obj 119 21 inlet;
#X msg 137 221 open ./media/\$1;
#X obj 251 398 bng 15 250 50 0 empty empty empty 17 7 0 10 -262144
-1 -1;
#X msg 314 427 1;
#X msg 169 170 1;
#X msg 203 168 0;
#X obj 198 284 readsf~ 2;
#X text 293 540 left right vol pan;
#X obj 83 150 symbol;
#X obj 117 62 route open play start stop loop vol pan;
#X obj 282 370 spigot 1;
#X connect 1 0 10 0;
#X connect 2 0 7 0;
#X connect 3 0 4 0;
#X connect 4 0 7 0;
#X connect 5 0 7 0;
#X connect 6 0 7 0;
#X connect 7 0 0 0;
#X connect 7 1 0 1;
#X connect 7 2 11 0;
#X connect 9 0 2 0;
#X connect 10 0 9 0;
#X connect 10 1 9 0;
#X connect 10 1 5 0;
#X connect 10 2 5 0;
#X connect 10 3 6 0;
#X connect 10 4 11 1;
#X connect 10 5 0 2;
#X connect 10 6 0 3;
#X connect 11 0 3 0;
