#N canvas 488 271 1119 720 10;
#X msg 777 27 \; pd dsp 1;
#X obj 715 -49 loadbang;
#X obj 734 -12 delay 5000;
#X obj 44 15 route 0 1 2 3 4 5 6 7, f 52;
#X obj 81 50 filePlayer;
#X obj 49 74 filePlayer;
#X obj 160 54 filePlayer;
#X obj 128 78 filePlayer;
#X obj 242 55 filePlayer;
#X obj 210 79 filePlayer;
#X obj 321 59 filePlayer;
#X obj 289 83 filePlayer;
#X obj 43 -85 netreceive -u -b 9000;
#X obj 43 -61 oscparse;
#X obj 43 -18 route ch all;
#X obj 42 -41 route list;
#X obj 427 63 filePlayer;
#X obj 395 87 filePlayer;
#X obj 506 67 filePlayer;
#X obj 474 91 filePlayer;
#X obj 588 68 filePlayer;
#X obj 556 92 filePlayer;
#X obj 667 72 filePlayer;
#X obj 635 96 filePlayer;
#X obj 389 -5 route ch all;
#X obj 390 28 route 8 9 10 11 12 13 14 15, f 52;
#X connect 1 0 2 0;
#X connect 2 0 0 0;
#X connect 3 0 5 0;
#X connect 3 1 4 0;
#X connect 3 2 7 0;
#X connect 3 3 6 0;
#X connect 3 4 9 0;
#X connect 3 5 8 0;
#X connect 3 6 11 0;
#X connect 3 7 10 0;
#X connect 12 0 13 0;
#X connect 13 0 15 0;
#X connect 14 0 3 0;
#X connect 14 1 5 0;
#X connect 14 1 4 0;
#X connect 14 1 7 0;
#X connect 14 1 6 0;
#X connect 14 1 9 0;
#X connect 14 1 8 0;
#X connect 14 1 11 0;
#X connect 14 1 10 0;
#X connect 15 0 14 0;
#X connect 15 0 24 0;
#X connect 24 0 25 0;
#X connect 24 1 17 0;
#X connect 24 1 16 0;
#X connect 24 1 19 0;
#X connect 24 1 18 0;
#X connect 24 1 21 0;
#X connect 24 1 20 0;
#X connect 24 1 23 0;
#X connect 24 1 22 0;
#X connect 25 0 17 0;
#X connect 25 1 16 0;
#X connect 25 2 19 0;
#X connect 25 3 18 0;
#X connect 25 4 21 0;
#X connect 25 5 20 0;
#X connect 25 6 23 0;
#X connect 25 7 22 0;
